<svg width="370" height="85" viewBox="0 0 370 85" fill="none" xmlns="http://www.w3.org/2000/svg">
<rect x="20" y="20" width="40" height="40" rx="8" fill="#E0E0E0"/>
<path d="M47.8428 32.543C45.7022 30.7188 42.5186 31.047 40.5538 33.0743L39.7842 33.8673L39.0147 33.0743C37.0538 31.047 33.8663 30.7188 31.7256 32.543C29.2725 34.6368 29.1436 38.3946 31.3389 40.6641L38.8975 48.4688C39.3858 48.9727 40.1788 48.9727 40.667 48.4688L48.2256 40.6641C50.4249 38.3946 50.296 34.6368 47.8428 32.543Z" fill="#4F4F4F"/>
<rect x="310" y="20" width="40" height="40" rx="8" fill="#E0E0E0" fill-opacity="0.5"/>
<g clip-path="url(#clip0_8_203)">
<path d="M328.438 30H331.562C332.082 30 332.5 30.418 332.5 30.9375V37.5H335.926C336.621 37.5 336.969 38.3398 336.477 38.832L330.535 44.7773C330.242 45.0703 329.762 45.0703 329.469 44.7773L323.52 38.832C323.027 38.3398 323.375 37.5 324.07 37.5H327.5V30.9375C327.5 30.418 327.918 30 328.438 30ZM340 44.6875V49.0625C340 49.582 339.582 50 339.062 50H320.938C320.418 50 320 49.582 320 49.0625V44.6875C320 44.168 320.418 43.75 320.938 43.75H326.668L328.582 45.6641C329.367 46.4492 330.633 46.4492 331.418 45.6641L333.332 43.75H339.062C339.582 43.75 340 44.168 340 44.6875ZM335.156 48.125C335.156 47.6953 334.805 47.3438 334.375 47.3438C333.945 47.3438 333.594 47.6953 333.594 48.125C333.594 48.5547 333.945 48.9062 334.375 48.9062C334.805 48.9062 335.156 48.5547 335.156 48.125ZM337.656 48.125C337.656 47.6953 337.305 47.3438 336.875 47.3438C336.445 47.3438 336.094 47.6953 336.094 48.125C336.094 48.5547 336.445 48.9062 336.875 48.9062C337.305 48.9062 337.656 48.5547 337.656 48.125Z" fill="#4F4F4F"/>
</g>
<path d="M30.7486 60C31.9022 60 32.8886 61.0083 32.8886 62.1875V67.063C33.721 66.2652 35.3186 66.1672 36.3526 67.3706C37.4673 66.6729 38.9414 67.2658 39.3954 68.1738C41.7948 67.7356 42.875 69.2454 42.875 71.7188C42.875 71.8528 42.8651 72.367 42.8655 72.5C42.8737 75.5259 41.3486 76.2546 40.9946 78.5416C40.9064 79.1115 40.414 79.5312 39.8372 79.5312H31.462L31.4619 79.5312C30.5651 79.5306 29.7095 79.0132 29.321 78.1413C28.6866 76.7309 26.9266 73.4825 25.5455 72.8906C24.6571 72.5099 24.1254 71.8465 24.125 70.9375C24.1243 69.2665 25.8388 68.1176 27.392 68.7833C27.8001 68.9582 28.206 69.1891 28.6087 69.4743V62.1875C28.6087 61.0425 29.6118 60 30.7486 60ZM30.7656 80.3125H40.1406C40.7878 80.3125 41.3125 80.8372 41.3125 81.4844V83.8281C41.3125 84.4753 40.7878 85 40.1406 85H30.7656C30.1184 85 29.5938 84.4753 29.5938 83.8281V81.4844C29.5938 80.8372 30.1184 80.3125 30.7656 80.3125ZM38.9688 81.6797C38.4294 81.6797 37.9922 82.1169 37.9922 82.6562C37.9922 83.1956 38.4294 83.6328 38.9688 83.6328C39.5081 83.6328 39.9453 83.1956 39.9453 82.6562C39.9453 82.1169 39.5081 81.6797 38.9688 81.6797Z" fill="black"/>
<defs>
<clipPath id="clip0_8_203">
<rect width="20" height="20" fill="white" transform="translate(320 30)"/>
</clipPath>
</defs>
</svg>
